<mxfile host="65bd71144e">
    <diagram id="JGKF3jAnsXC5R7CiAGKE" name="Page-1">
        <mxGraphModel dx="4044" dy="4383" grid="0" gridSize="10" guides="0" tooltips="0" connect="1" arrows="1" fold="1" page="0" pageScale="1" pageWidth="3000" pageHeight="2000" background="#ffffff" math="0" shadow="0">
            <root>
                <mxCell id="0"/>
                <mxCell id="1" parent="0"/>
                <mxCell id="24" value="post_types" style="shape=table;startSize=30;container=1;collapsible=1;childLayout=tableLayout;fixedRows=1;rowLines=0;fontStyle=1;align=center;resizeLast=1;strokeColor=#36393d;fillColor=#cdeb8b;fontColor=#000000;fontSize=15;labelBackgroundColor=none;labelBorderColor=none;fontFamily=Helvetica;rounded=0;" parent="1" vertex="1">
                    <mxGeometry x="-2760" y="-3680" width="250" height="120" as="geometry">
                        <mxRectangle x="-2740" y="-3680" width="170" height="30" as="alternateBounds"/>
                    </mxGeometry>
                </mxCell>
                <mxCell id="25" value="" style="shape=partialRectangle;collapsible=0;dropTarget=0;pointerEvents=0;fillColor=#FFFFFF;points=[[0,0.5],[1,0.5]];portConstraint=eastwest;top=0;left=0;right=0;bottom=1;strokeColor=#666666;labelBackgroundColor=none;noLabel=1;fontColor=#333333;fontFamily=Helvetica;rounded=0;" parent="24" vertex="1">
                    <mxGeometry y="30" width="250" height="30" as="geometry"/>
                </mxCell>
                <mxCell id="26" value="PK" style="shape=partialRectangle;overflow=hidden;connectable=0;fillColor=none;top=1;left=1;bottom=1;right=1;fontStyle=1;fontColor=#000000;strokeColor=#000000;fontFamily=Helvetica;rounded=0;" parent="25" vertex="1">
                    <mxGeometry width="30" height="30" as="geometry">
                        <mxRectangle width="30" height="30" as="alternateBounds"/>
                    </mxGeometry>
                </mxCell>
                <mxCell id="27" value="id bigint NOT NULL " style="shape=partialRectangle;overflow=hidden;connectable=0;fillColor=none;top=1;left=1;bottom=1;right=1;align=left;spacingLeft=6;fontStyle=1;fontColor=#000000;strokeColor=#000000;noLabel=0;portConstraintRotation=0;fontFamily=Helvetica;rounded=0;" parent="25" vertex="1">
                    <mxGeometry x="30" width="220" height="30" as="geometry">
                        <mxRectangle width="220" height="30" as="alternateBounds"/>
                    </mxGeometry>
                </mxCell>
                <mxCell id="28" value="" style="shape=partialRectangle;collapsible=0;dropTarget=0;pointerEvents=0;fillColor=#FFFFFF;points=[[0,0.5],[1,0.5]];portConstraint=eastwest;top=1;left=1;right=1;bottom=1;labelBorderColor=#000000;strokeColor=#000000;labelBackgroundColor=none;fontFamily=Helvetica;rounded=0;" parent="24" vertex="1">
                    <mxGeometry y="60" width="250" height="30" as="geometry"/>
                </mxCell>
                <mxCell id="29" value="" style="shape=partialRectangle;overflow=hidden;connectable=0;fillColor=none;top=0;left=0;bottom=0;right=0;fontFamily=Helvetica;rounded=0;" parent="28" vertex="1">
                    <mxGeometry width="30" height="30" as="geometry">
                        <mxRectangle width="30" height="30" as="alternateBounds"/>
                    </mxGeometry>
                </mxCell>
                <mxCell id="30" value="name varchar(50) NOT NULL" style="shape=partialRectangle;overflow=hidden;connectable=0;fillColor=none;top=0;left=1;bottom=0;right=0;align=left;spacingLeft=6;fontColor=#000000;strokeColor=#000000;fontSize=13;fontFamily=Helvetica;rounded=0;" parent="28" vertex="1">
                    <mxGeometry x="30" width="220" height="30" as="geometry">
                        <mxRectangle width="220" height="30" as="alternateBounds"/>
                    </mxGeometry>
                </mxCell>
                <mxCell id="254" value="" style="shape=partialRectangle;collapsible=0;dropTarget=0;pointerEvents=0;fillColor=#FFFFFF;points=[[0,0.5],[1,0.5]];portConstraint=eastwest;top=1;left=1;right=1;bottom=1;labelBorderColor=#000000;strokeColor=#000000;labelBackgroundColor=none;fontFamily=Helvetica;rounded=0;" parent="24" vertex="1">
                    <mxGeometry y="90" width="250" height="30" as="geometry"/>
                </mxCell>
                <mxCell id="255" value="" style="shape=partialRectangle;overflow=hidden;connectable=0;fillColor=none;top=0;left=0;bottom=0;right=0;fontFamily=Helvetica;rounded=0;" parent="254" vertex="1">
                    <mxGeometry width="30" height="30" as="geometry">
                        <mxRectangle width="30" height="30" as="alternateBounds"/>
                    </mxGeometry>
                </mxCell>
                <mxCell id="256" value="slug varchar(50) NOT NULL" style="shape=partialRectangle;overflow=hidden;connectable=0;fillColor=none;top=0;left=1;bottom=0;right=0;align=left;spacingLeft=6;fontColor=#000000;strokeColor=#000000;fontSize=13;fontFamily=Helvetica;rounded=0;" parent="254" vertex="1">
                    <mxGeometry x="30" width="220" height="30" as="geometry">
                        <mxRectangle width="220" height="30" as="alternateBounds"/>
                    </mxGeometry>
                </mxCell>
                <mxCell id="31" value="tags" style="shape=table;startSize=30;container=1;collapsible=1;childLayout=tableLayout;fixedRows=1;rowLines=0;fontStyle=1;align=center;resizeLast=1;strokeColor=#36393d;fillColor=#cdeb8b;fontColor=#000000;fontSize=15;labelBackgroundColor=none;labelBorderColor=none;fontFamily=Helvetica;rounded=0;" parent="1" vertex="1">
                    <mxGeometry x="-2643" y="-3373" width="250" height="300" as="geometry">
                        <mxRectangle x="-2640" y="-3320" width="170" height="30" as="alternateBounds"/>
                    </mxGeometry>
                </mxCell>
                <mxCell id="32" value="" style="shape=partialRectangle;collapsible=0;dropTarget=0;pointerEvents=0;fillColor=#FFFFFF;points=[[0,0.5],[1,0.5]];portConstraint=eastwest;top=0;left=0;right=0;bottom=1;strokeColor=#666666;labelBackgroundColor=none;noLabel=1;fontColor=#333333;fontFamily=Helvetica;rounded=0;" parent="31" vertex="1">
                    <mxGeometry y="30" width="250" height="30" as="geometry"/>
                </mxCell>
                <mxCell id="33" value="PK" style="shape=partialRectangle;overflow=hidden;connectable=0;fillColor=none;top=1;left=1;bottom=1;right=1;fontStyle=1;fontColor=#000000;strokeColor=#000000;fontFamily=Helvetica;rounded=0;" parent="32" vertex="1">
                    <mxGeometry width="30" height="30" as="geometry">
                        <mxRectangle width="30" height="30" as="alternateBounds"/>
                    </mxGeometry>
                </mxCell>
                <mxCell id="34" value="id bigint NOT NULL " style="shape=partialRectangle;overflow=hidden;connectable=0;fillColor=none;top=1;left=1;bottom=1;right=1;align=left;spacingLeft=6;fontStyle=1;fontColor=#000000;strokeColor=#000000;noLabel=0;portConstraintRotation=0;fontFamily=Helvetica;rounded=0;" parent="32" vertex="1">
                    <mxGeometry x="30" width="220" height="30" as="geometry">
                        <mxRectangle width="220" height="30" as="alternateBounds"/>
                    </mxGeometry>
                </mxCell>
                <mxCell id="35" value="" style="shape=partialRectangle;collapsible=0;dropTarget=0;pointerEvents=0;fillColor=#FFFFFF;points=[[0,0.5],[1,0.5]];portConstraint=eastwest;top=1;left=1;right=1;bottom=1;labelBorderColor=#000000;strokeColor=#000000;labelBackgroundColor=none;fontFamily=Helvetica;rounded=0;" parent="31" vertex="1">
                    <mxGeometry y="60" width="250" height="30" as="geometry"/>
                </mxCell>
                <mxCell id="36" value="" style="shape=partialRectangle;overflow=hidden;connectable=0;fillColor=none;top=0;left=0;bottom=0;right=0;fontFamily=Helvetica;rounded=0;" parent="35" vertex="1">
                    <mxGeometry width="30" height="30" as="geometry">
                        <mxRectangle width="30" height="30" as="alternateBounds"/>
                    </mxGeometry>
                </mxCell>
                <mxCell id="37" value="name varchar(30) NOT NULL" style="shape=partialRectangle;overflow=hidden;connectable=0;fillColor=none;top=0;left=1;bottom=0;right=0;align=left;spacingLeft=6;fontColor=#000000;strokeColor=#000000;fontSize=13;fontFamily=Helvetica;rounded=0;" parent="35" vertex="1">
                    <mxGeometry x="30" width="220" height="30" as="geometry">
                        <mxRectangle width="220" height="30" as="alternateBounds"/>
                    </mxGeometry>
                </mxCell>
                <mxCell id="38" value="" style="shape=partialRectangle;collapsible=0;dropTarget=0;pointerEvents=0;fillColor=#FFFFFF;points=[[0,0.5],[1,0.5]];portConstraint=eastwest;top=1;left=1;right=1;bottom=1;labelBorderColor=#000000;strokeColor=#000000;labelBackgroundColor=none;fontFamily=Helvetica;rounded=0;" parent="31" vertex="1">
                    <mxGeometry y="90" width="250" height="30" as="geometry"/>
                </mxCell>
                <mxCell id="39" value="" style="shape=partialRectangle;overflow=hidden;connectable=0;fillColor=none;top=0;left=0;bottom=0;right=0;fontFamily=Helvetica;rounded=0;" parent="38" vertex="1">
                    <mxGeometry width="30" height="30" as="geometry">
                        <mxRectangle width="30" height="30" as="alternateBounds"/>
                    </mxGeometry>
                </mxCell>
                <mxCell id="40" value="slug varchar(30) NOT NULL" style="shape=partialRectangle;overflow=hidden;connectable=0;fillColor=none;top=0;left=1;bottom=0;right=0;align=left;spacingLeft=6;fontColor=#000000;strokeColor=#000000;fontSize=13;fontFamily=Helvetica;rounded=0;" parent="38" vertex="1">
                    <mxGeometry x="30" width="220" height="30" as="geometry">
                        <mxRectangle width="220" height="30" as="alternateBounds"/>
                    </mxGeometry>
                </mxCell>
                <mxCell id="89" value="" style="shape=partialRectangle;collapsible=0;dropTarget=0;pointerEvents=0;fillColor=#FFFFFF;points=[[0,0.5],[1,0.5]];portConstraint=eastwest;top=1;left=1;right=1;bottom=1;labelBorderColor=#000000;strokeColor=#000000;labelBackgroundColor=none;fontFamily=Helvetica;rounded=0;" parent="31" vertex="1">
                    <mxGeometry y="120" width="250" height="30" as="geometry"/>
                </mxCell>
                <mxCell id="90" value="" style="shape=partialRectangle;overflow=hidden;connectable=0;fillColor=none;top=0;left=0;bottom=0;right=0;fontFamily=Helvetica;rounded=0;" parent="89" vertex="1">
                    <mxGeometry width="30" height="30" as="geometry">
                        <mxRectangle width="30" height="30" as="alternateBounds"/>
                    </mxGeometry>
                </mxCell>
                <mxCell id="91" value="description text  " style="shape=partialRectangle;overflow=hidden;connectable=0;fillColor=none;top=0;left=1;bottom=0;right=0;align=left;spacingLeft=6;fontColor=#000000;strokeColor=#000000;fontSize=13;fontFamily=Helvetica;rounded=0;" parent="89" vertex="1">
                    <mxGeometry x="30" width="220" height="30" as="geometry">
                        <mxRectangle width="220" height="30" as="alternateBounds"/>
                    </mxGeometry>
                </mxCell>
                <mxCell id="51" value="" style="shape=partialRectangle;collapsible=0;dropTarget=0;pointerEvents=0;fillColor=#FFFFFF;points=[[0,0.5],[1,0.5]];portConstraint=eastwest;top=1;left=1;right=1;bottom=1;labelBorderColor=#000000;strokeColor=#000000;labelBackgroundColor=none;fontFamily=Helvetica;rounded=0;" parent="31" vertex="1">
                    <mxGeometry y="150" width="250" height="30" as="geometry"/>
                </mxCell>
                <mxCell id="52" value="" style="shape=partialRectangle;overflow=hidden;connectable=0;fillColor=none;top=0;left=0;bottom=0;right=0;fontFamily=Helvetica;rounded=0;" parent="51" vertex="1">
                    <mxGeometry width="30" height="30" as="geometry">
                        <mxRectangle width="30" height="30" as="alternateBounds"/>
                    </mxGeometry>
                </mxCell>
                <mxCell id="53" value="meta_tag_description varchar(255) " style="shape=partialRectangle;overflow=hidden;connectable=0;fillColor=none;top=0;left=1;bottom=0;right=0;align=left;spacingLeft=6;fontColor=#000000;strokeColor=#000000;fontSize=13;fontFamily=Helvetica;rounded=0;" parent="51" vertex="1">
                    <mxGeometry x="30" width="220" height="30" as="geometry">
                        <mxRectangle width="220" height="30" as="alternateBounds"/>
                    </mxGeometry>
                </mxCell>
                <mxCell id="54" value="" style="shape=partialRectangle;collapsible=0;dropTarget=0;pointerEvents=0;fillColor=#FFFFFF;points=[[0,0.5],[1,0.5]];portConstraint=eastwest;top=1;left=1;right=1;bottom=1;labelBorderColor=#000000;strokeColor=#000000;labelBackgroundColor=none;fontFamily=Helvetica;rounded=0;" parent="31" vertex="1">
                    <mxGeometry y="180" width="250" height="30" as="geometry"/>
                </mxCell>
                <mxCell id="55" value="" style="shape=partialRectangle;overflow=hidden;connectable=0;fillColor=none;top=0;left=0;bottom=0;right=0;fontFamily=Helvetica;rounded=0;" parent="54" vertex="1">
                    <mxGeometry width="30" height="30" as="geometry">
                        <mxRectangle width="30" height="30" as="alternateBounds"/>
                    </mxGeometry>
                </mxCell>
                <mxCell id="56" value="meta_tag_keywords varchar(255) " style="shape=partialRectangle;overflow=hidden;connectable=0;fillColor=none;top=0;left=1;bottom=0;right=0;align=left;spacingLeft=6;fontColor=#000000;strokeColor=#000000;fontSize=13;fontFamily=Helvetica;rounded=0;" parent="54" vertex="1">
                    <mxGeometry x="30" width="220" height="30" as="geometry">
                        <mxRectangle width="220" height="30" as="alternateBounds"/>
                    </mxGeometry>
                </mxCell>
                <mxCell id="92" value="" style="shape=partialRectangle;collapsible=0;dropTarget=0;pointerEvents=0;fillColor=#FFFFFF;points=[[0,0.5],[1,0.5]];portConstraint=eastwest;top=1;left=1;right=1;bottom=1;labelBorderColor=#000000;strokeColor=#000000;labelBackgroundColor=none;fontFamily=Helvetica;rounded=0;" parent="31" vertex="1">
                    <mxGeometry y="210" width="250" height="30" as="geometry"/>
                </mxCell>
                <mxCell id="93" value="FK" style="shape=partialRectangle;overflow=hidden;connectable=0;fillColor=none;top=0;left=0;bottom=0;right=0;fontFamily=Helvetica;rounded=0;fontColor=#000000;" parent="92" vertex="1">
                    <mxGeometry width="30" height="30" as="geometry">
                        <mxRectangle width="30" height="30" as="alternateBounds"/>
                    </mxGeometry>
                </mxCell>
                <mxCell id="94" value="tag_img_id bigint " style="shape=partialRectangle;overflow=hidden;connectable=0;fillColor=none;top=0;left=1;bottom=0;right=0;align=left;spacingLeft=6;fontColor=#000000;strokeColor=#000000;fontSize=13;fontFamily=Helvetica;rounded=0;" parent="92" vertex="1">
                    <mxGeometry x="30" width="220" height="30" as="geometry">
                        <mxRectangle width="220" height="30" as="alternateBounds"/>
                    </mxGeometry>
                </mxCell>
                <mxCell id="108" value="" style="shape=partialRectangle;collapsible=0;dropTarget=0;pointerEvents=0;fillColor=#FFFFFF;points=[[0,0.5],[1,0.5]];portConstraint=eastwest;top=1;left=1;right=1;bottom=1;labelBorderColor=#000000;strokeColor=#000000;labelBackgroundColor=none;fontFamily=Helvetica;rounded=0;" parent="31" vertex="1">
                    <mxGeometry y="240" width="250" height="30" as="geometry"/>
                </mxCell>
                <mxCell id="109" value="FK" style="shape=partialRectangle;overflow=hidden;connectable=0;fillColor=none;top=0;left=0;bottom=0;right=0;fontFamily=Helvetica;rounded=0;fontColor=#000000;" parent="108" vertex="1">
                    <mxGeometry width="30" height="30" as="geometry">
                        <mxRectangle width="30" height="30" as="alternateBounds"/>
                    </mxGeometry>
                </mxCell>
                <mxCell id="110" value="created_by bigint " style="shape=partialRectangle;overflow=hidden;connectable=0;fillColor=none;top=0;left=1;bottom=0;right=0;align=left;spacingLeft=6;fontColor=#000000;strokeColor=#000000;fontSize=13;fontFamily=Helvetica;rounded=0;" parent="108" vertex="1">
                    <mxGeometry x="30" width="220" height="30" as="geometry">
                        <mxRectangle width="220" height="30" as="alternateBounds"/>
                    </mxGeometry>
                </mxCell>
                <mxCell id="138" value="" style="shape=partialRectangle;collapsible=0;dropTarget=0;pointerEvents=0;fillColor=#FFFFFF;points=[[0,0.5],[1,0.5]];portConstraint=eastwest;top=1;left=1;right=1;bottom=1;labelBorderColor=#000000;strokeColor=#000000;labelBackgroundColor=none;fontFamily=Helvetica;rounded=0;" parent="31" vertex="1">
                    <mxGeometry y="270" width="250" height="30" as="geometry"/>
                </mxCell>
                <mxCell id="139" value="FK" style="shape=partialRectangle;overflow=hidden;connectable=0;fillColor=none;top=0;left=0;bottom=0;right=0;fontFamily=Helvetica;rounded=0;fontColor=#000000;" parent="138" vertex="1">
                    <mxGeometry width="30" height="30" as="geometry">
                        <mxRectangle width="30" height="30" as="alternateBounds"/>
                    </mxGeometry>
                </mxCell>
                <mxCell id="140" value="updated_by bigint " style="shape=partialRectangle;overflow=hidden;connectable=0;fillColor=none;top=0;left=1;bottom=0;right=0;align=left;spacingLeft=6;fontColor=#000000;strokeColor=#000000;fontSize=13;fontFamily=Helvetica;rounded=0;" parent="138" vertex="1">
                    <mxGeometry x="30" width="220" height="30" as="geometry">
                        <mxRectangle width="220" height="30" as="alternateBounds"/>
                    </mxGeometry>
                </mxCell>
                <mxCell id="98" value="meta_infos" style="shape=table;startSize=30;container=1;collapsible=1;childLayout=tableLayout;fixedRows=1;rowLines=0;fontStyle=1;align=center;resizeLast=1;strokeColor=#36393d;fillColor=#cdeb8b;fontColor=#000000;fontSize=15;labelBackgroundColor=none;labelBorderColor=none;fontFamily=Helvetica;rounded=0;" parent="1" vertex="1">
                    <mxGeometry x="-3064" y="-2909" width="280" height="110" as="geometry">
                        <mxRectangle x="-2680" y="-2840" width="170" height="30" as="alternateBounds"/>
                    </mxGeometry>
                </mxCell>
                <mxCell id="105" value="" style="shape=partialRectangle;collapsible=0;dropTarget=0;pointerEvents=0;fillColor=#008a00;points=[[0,0.5],[1,0.5]];portConstraint=eastwest;top=0;left=0;right=0;bottom=1;strokeColor=#005700;labelBackgroundColor=none;noLabel=1;fontColor=#ffffff;fontFamily=Helvetica;rounded=0;" parent="98" vertex="1">
                    <mxGeometry y="30" width="280" height="30" as="geometry"/>
                </mxCell>
                <mxCell id="106" value="meta_key" style="shape=partialRectangle;overflow=hidden;connectable=0;fillColor=none;top=1;left=1;bottom=1;right=1;fontStyle=1;fontColor=#FFFFFF;strokeColor=#000000;fontFamily=Helvetica;rounded=0;align=center;" parent="105" vertex="1">
                    <mxGeometry width="110" height="30" as="geometry">
                        <mxRectangle width="110" height="30" as="alternateBounds"/>
                    </mxGeometry>
                </mxCell>
                <mxCell id="107" value="meta_value" style="shape=partialRectangle;overflow=hidden;connectable=0;fillColor=none;top=1;left=1;bottom=1;right=1;align=left;spacingLeft=6;fontStyle=1;fontColor=#FFFFFF;strokeColor=#000000;portConstraintRotation=0;fontFamily=Helvetica;rounded=0;" parent="105" vertex="1">
                    <mxGeometry x="110" width="170" height="30" as="geometry">
                        <mxRectangle width="170" height="30" as="alternateBounds"/>
                    </mxGeometry>
                </mxCell>
                <mxCell id="99" value="" style="shape=partialRectangle;collapsible=0;dropTarget=0;pointerEvents=0;fillColor=#FFFFFF;points=[[0,0.5],[1,0.5]];portConstraint=eastwest;top=0;left=0;right=0;bottom=1;strokeColor=#666666;labelBackgroundColor=none;noLabel=1;fontColor=#333333;fontFamily=Helvetica;rounded=0;" parent="98" vertex="1">
                    <mxGeometry y="60" width="280" height="50" as="geometry"/>
                </mxCell>
                <mxCell id="100" value="trending_tags" style="shape=partialRectangle;overflow=hidden;connectable=0;fillColor=none;top=1;left=1;bottom=1;right=1;fontStyle=1;fontColor=#000000;strokeColor=#000000;fontFamily=Helvetica;rounded=0;align=center;" parent="99" vertex="1">
                    <mxGeometry width="110" height="50" as="geometry">
                        <mxRectangle width="110" height="50" as="alternateBounds"/>
                    </mxGeometry>
                </mxCell>
                <mxCell id="101" value="array of tag ids" style="shape=partialRectangle;overflow=hidden;connectable=0;fillColor=none;top=1;left=1;bottom=1;right=1;align=left;spacingLeft=6;fontStyle=1;fontColor=#000000;strokeColor=#000000;noLabel=0;portConstraintRotation=0;fontFamily=Helvetica;rounded=0;" parent="99" vertex="1">
                    <mxGeometry x="110" width="170" height="50" as="geometry">
                        <mxRectangle width="170" height="50" as="alternateBounds"/>
                    </mxGeometry>
                </mxCell>
                <mxCell id="151" value="categories" style="shape=table;startSize=30;container=1;collapsible=1;childLayout=tableLayout;fixedRows=1;rowLines=0;fontStyle=1;align=center;resizeLast=1;strokeColor=#36393d;fillColor=#cdeb8b;fontColor=#000000;fontSize=15;labelBackgroundColor=none;labelBorderColor=none;fontFamily=Helvetica;rounded=0;" parent="1" vertex="1">
                    <mxGeometry x="-2013" y="-3508" width="250" height="330" as="geometry">
                        <mxRectangle x="-2015" y="-3507" width="170" height="30" as="alternateBounds"/>
                    </mxGeometry>
                </mxCell>
                <mxCell id="152" value="" style="shape=partialRectangle;collapsible=0;dropTarget=0;pointerEvents=0;fillColor=#FFFFFF;points=[[0,0.5],[1,0.5]];portConstraint=eastwest;top=0;left=0;right=0;bottom=1;strokeColor=#666666;labelBackgroundColor=none;noLabel=1;fontColor=#333333;fontFamily=Helvetica;rounded=0;" parent="151" vertex="1">
                    <mxGeometry y="30" width="250" height="30" as="geometry"/>
                </mxCell>
                <mxCell id="153" value="PK" style="shape=partialRectangle;overflow=hidden;connectable=0;fillColor=none;top=1;left=1;bottom=1;right=1;fontStyle=1;fontColor=#000000;strokeColor=#000000;fontFamily=Helvetica;rounded=0;" parent="152" vertex="1">
                    <mxGeometry width="32.75" height="30" as="geometry">
                        <mxRectangle width="32.75" height="30" as="alternateBounds"/>
                    </mxGeometry>
                </mxCell>
                <mxCell id="154" value="id bigint NOT NULL " style="shape=partialRectangle;overflow=hidden;connectable=0;fillColor=none;top=1;left=1;bottom=1;right=1;align=left;spacingLeft=6;fontStyle=1;fontColor=#000000;strokeColor=#000000;noLabel=0;portConstraintRotation=0;fontFamily=Helvetica;rounded=0;" parent="152" vertex="1">
                    <mxGeometry x="32.75" width="217.25" height="30" as="geometry">
                        <mxRectangle width="217.25" height="30" as="alternateBounds"/>
                    </mxGeometry>
                </mxCell>
                <mxCell id="210" value="" style="shape=partialRectangle;collapsible=0;dropTarget=0;pointerEvents=0;fillColor=#FFFFFF;points=[[0,0.5],[1,0.5]];portConstraint=eastwest;top=1;left=1;right=1;bottom=1;labelBorderColor=#000000;strokeColor=#000000;labelBackgroundColor=none;fontFamily=Helvetica;rounded=0;" parent="151" vertex="1">
                    <mxGeometry y="60" width="250" height="30" as="geometry"/>
                </mxCell>
                <mxCell id="211" value="FK" style="shape=partialRectangle;overflow=hidden;connectable=0;fillColor=none;top=0;left=0;bottom=0;right=0;fontFamily=Helvetica;rounded=0;fontColor=#000000;" parent="210" vertex="1">
                    <mxGeometry width="32.75" height="30" as="geometry">
                        <mxRectangle width="32.75" height="30" as="alternateBounds"/>
                    </mxGeometry>
                </mxCell>
                <mxCell id="212" value="parent_category_id bigint " style="shape=partialRectangle;overflow=hidden;connectable=0;fillColor=none;top=0;left=1;bottom=0;right=0;align=left;spacingLeft=6;fontColor=#000000;strokeColor=#000000;fontSize=13;fontFamily=Helvetica;rounded=0;" parent="210" vertex="1">
                    <mxGeometry x="32.75" width="217.25" height="30" as="geometry">
                        <mxRectangle width="217.25" height="30" as="alternateBounds"/>
                    </mxGeometry>
                </mxCell>
                <mxCell id="155" value="" style="shape=partialRectangle;collapsible=0;dropTarget=0;pointerEvents=0;fillColor=#FFFFFF;points=[[0,0.5],[1,0.5]];portConstraint=eastwest;top=1;left=1;right=1;bottom=1;labelBorderColor=#000000;strokeColor=#000000;labelBackgroundColor=none;fontFamily=Helvetica;rounded=0;" parent="151" vertex="1">
                    <mxGeometry y="90" width="250" height="30" as="geometry"/>
                </mxCell>
                <mxCell id="156" value="" style="shape=partialRectangle;overflow=hidden;connectable=0;fillColor=none;top=0;left=0;bottom=0;right=0;fontFamily=Helvetica;rounded=0;" parent="155" vertex="1">
                    <mxGeometry width="32.75" height="30" as="geometry">
                        <mxRectangle width="32.75" height="30" as="alternateBounds"/>
                    </mxGeometry>
                </mxCell>
                <mxCell id="157" value="name varchar(30) NOT NULL" style="shape=partialRectangle;overflow=hidden;connectable=0;fillColor=none;top=0;left=1;bottom=0;right=0;align=left;spacingLeft=6;fontColor=#000000;strokeColor=#000000;fontSize=13;fontFamily=Helvetica;rounded=0;" parent="155" vertex="1">
                    <mxGeometry x="32.75" width="217.25" height="30" as="geometry">
                        <mxRectangle width="217.25" height="30" as="alternateBounds"/>
                    </mxGeometry>
                </mxCell>
                <mxCell id="158" value="" style="shape=partialRectangle;collapsible=0;dropTarget=0;pointerEvents=0;fillColor=#FFFFFF;points=[[0,0.5],[1,0.5]];portConstraint=eastwest;top=1;left=1;right=1;bottom=1;labelBorderColor=#000000;strokeColor=#000000;labelBackgroundColor=none;fontFamily=Helvetica;rounded=0;" parent="151" vertex="1">
                    <mxGeometry y="120" width="250" height="30" as="geometry"/>
                </mxCell>
                <mxCell id="159" value="" style="shape=partialRectangle;overflow=hidden;connectable=0;fillColor=none;top=0;left=0;bottom=0;right=0;fontFamily=Helvetica;rounded=0;" parent="158" vertex="1">
                    <mxGeometry width="32.75" height="30" as="geometry">
                        <mxRectangle width="32.75" height="30" as="alternateBounds"/>
                    </mxGeometry>
                </mxCell>
                <mxCell id="160" value="slug varchar(30) NOT NULL" style="shape=partialRectangle;overflow=hidden;connectable=0;fillColor=none;top=0;left=1;bottom=0;right=0;align=left;spacingLeft=6;fontColor=#000000;strokeColor=#000000;fontSize=13;fontFamily=Helvetica;rounded=0;" parent="158" vertex="1">
                    <mxGeometry x="32.75" width="217.25" height="30" as="geometry">
                        <mxRectangle width="217.25" height="30" as="alternateBounds"/>
                    </mxGeometry>
                </mxCell>
                <mxCell id="161" value="" style="shape=partialRectangle;collapsible=0;dropTarget=0;pointerEvents=0;fillColor=#FFFFFF;points=[[0,0.5],[1,0.5]];portConstraint=eastwest;top=1;left=1;right=1;bottom=1;labelBorderColor=#000000;strokeColor=#000000;labelBackgroundColor=none;fontFamily=Helvetica;rounded=0;" parent="151" vertex="1">
                    <mxGeometry y="150" width="250" height="30" as="geometry"/>
                </mxCell>
                <mxCell id="162" value="" style="shape=partialRectangle;overflow=hidden;connectable=0;fillColor=none;top=0;left=0;bottom=0;right=0;fontFamily=Helvetica;rounded=0;" parent="161" vertex="1">
                    <mxGeometry width="32.75" height="30" as="geometry">
                        <mxRectangle width="32.75" height="30" as="alternateBounds"/>
                    </mxGeometry>
                </mxCell>
                <mxCell id="163" value="description text  " style="shape=partialRectangle;overflow=hidden;connectable=0;fillColor=none;top=0;left=1;bottom=0;right=0;align=left;spacingLeft=6;fontColor=#000000;strokeColor=#000000;fontSize=13;fontFamily=Helvetica;rounded=0;" parent="161" vertex="1">
                    <mxGeometry x="32.75" width="217.25" height="30" as="geometry">
                        <mxRectangle width="217.25" height="30" as="alternateBounds"/>
                    </mxGeometry>
                </mxCell>
                <mxCell id="164" value="" style="shape=partialRectangle;collapsible=0;dropTarget=0;pointerEvents=0;fillColor=#FFFFFF;points=[[0,0.5],[1,0.5]];portConstraint=eastwest;top=1;left=1;right=1;bottom=1;labelBorderColor=#000000;strokeColor=#000000;labelBackgroundColor=none;fontFamily=Helvetica;rounded=0;" parent="151" vertex="1">
                    <mxGeometry y="180" width="250" height="30" as="geometry"/>
                </mxCell>
                <mxCell id="165" value="" style="shape=partialRectangle;overflow=hidden;connectable=0;fillColor=none;top=0;left=0;bottom=0;right=0;fontFamily=Helvetica;rounded=0;" parent="164" vertex="1">
                    <mxGeometry width="32.75" height="30" as="geometry">
                        <mxRectangle width="32.75" height="30" as="alternateBounds"/>
                    </mxGeometry>
                </mxCell>
                <mxCell id="166" value="meta_tag_description varchar(255) " style="shape=partialRectangle;overflow=hidden;connectable=0;fillColor=none;top=0;left=1;bottom=0;right=0;align=left;spacingLeft=6;fontColor=#000000;strokeColor=#000000;fontSize=13;fontFamily=Helvetica;rounded=0;" parent="164" vertex="1">
                    <mxGeometry x="32.75" width="217.25" height="30" as="geometry">
                        <mxRectangle width="217.25" height="30" as="alternateBounds"/>
                    </mxGeometry>
                </mxCell>
                <mxCell id="167" value="" style="shape=partialRectangle;collapsible=0;dropTarget=0;pointerEvents=0;fillColor=#FFFFFF;points=[[0,0.5],[1,0.5]];portConstraint=eastwest;top=1;left=1;right=1;bottom=1;labelBorderColor=#000000;strokeColor=#000000;labelBackgroundColor=none;fontFamily=Helvetica;rounded=0;" parent="151" vertex="1">
                    <mxGeometry y="210" width="250" height="30" as="geometry"/>
                </mxCell>
                <mxCell id="168" value="" style="shape=partialRectangle;overflow=hidden;connectable=0;fillColor=none;top=0;left=0;bottom=0;right=0;fontFamily=Helvetica;rounded=0;" parent="167" vertex="1">
                    <mxGeometry width="32.75" height="30" as="geometry">
                        <mxRectangle width="32.75" height="30" as="alternateBounds"/>
                    </mxGeometry>
                </mxCell>
                <mxCell id="169" value="meta_tag_keywords varchar(255) " style="shape=partialRectangle;overflow=hidden;connectable=0;fillColor=none;top=0;left=1;bottom=0;right=0;align=left;spacingLeft=6;fontColor=#000000;strokeColor=#000000;fontSize=13;fontFamily=Helvetica;rounded=0;" parent="167" vertex="1">
                    <mxGeometry x="32.75" width="217.25" height="30" as="geometry">
                        <mxRectangle width="217.25" height="30" as="alternateBounds"/>
                    </mxGeometry>
                </mxCell>
                <mxCell id="170" value="" style="shape=partialRectangle;collapsible=0;dropTarget=0;pointerEvents=0;fillColor=#FFFFFF;points=[[0,0.5],[1,0.5]];portConstraint=eastwest;top=1;left=1;right=1;bottom=1;labelBorderColor=#000000;strokeColor=#000000;labelBackgroundColor=none;fontFamily=Helvetica;rounded=0;" parent="151" vertex="1">
                    <mxGeometry y="240" width="250" height="30" as="geometry"/>
                </mxCell>
                <mxCell id="171" value="FK" style="shape=partialRectangle;overflow=hidden;connectable=0;fillColor=none;top=0;left=0;bottom=0;right=0;fontFamily=Helvetica;rounded=0;fontColor=#000000;" parent="170" vertex="1">
                    <mxGeometry width="32.75" height="30" as="geometry">
                        <mxRectangle width="32.75" height="30" as="alternateBounds"/>
                    </mxGeometry>
                </mxCell>
                <mxCell id="172" value="category_img_id bigint " style="shape=partialRectangle;overflow=hidden;connectable=0;fillColor=none;top=0;left=1;bottom=0;right=0;align=left;spacingLeft=6;fontColor=#000000;strokeColor=#000000;fontSize=13;fontFamily=Helvetica;rounded=0;" parent="170" vertex="1">
                    <mxGeometry x="32.75" width="217.25" height="30" as="geometry">
                        <mxRectangle width="217.25" height="30" as="alternateBounds"/>
                    </mxGeometry>
                </mxCell>
                <mxCell id="173" value="" style="shape=partialRectangle;collapsible=0;dropTarget=0;pointerEvents=0;fillColor=#FFFFFF;points=[[0,0.5],[1,0.5]];portConstraint=eastwest;top=1;left=1;right=1;bottom=1;labelBorderColor=#000000;strokeColor=#000000;labelBackgroundColor=none;fontFamily=Helvetica;rounded=0;" parent="151" vertex="1">
                    <mxGeometry y="270" width="250" height="30" as="geometry"/>
                </mxCell>
                <mxCell id="174" value="FK" style="shape=partialRectangle;overflow=hidden;connectable=0;fillColor=none;top=0;left=0;bottom=0;right=0;fontFamily=Helvetica;rounded=0;fontColor=#000000;" parent="173" vertex="1">
                    <mxGeometry width="32.75" height="30" as="geometry">
                        <mxRectangle width="32.75" height="30" as="alternateBounds"/>
                    </mxGeometry>
                </mxCell>
                <mxCell id="175" value="created_by bigint " style="shape=partialRectangle;overflow=hidden;connectable=0;fillColor=none;top=0;left=1;bottom=0;right=0;align=left;spacingLeft=6;fontColor=#000000;strokeColor=#000000;fontSize=13;fontFamily=Helvetica;rounded=0;" parent="173" vertex="1">
                    <mxGeometry x="32.75" width="217.25" height="30" as="geometry">
                        <mxRectangle width="217.25" height="30" as="alternateBounds"/>
                    </mxGeometry>
                </mxCell>
                <mxCell id="176" value="" style="shape=partialRectangle;collapsible=0;dropTarget=0;pointerEvents=0;fillColor=#FFFFFF;points=[[0,0.5],[1,0.5]];portConstraint=eastwest;top=1;left=1;right=1;bottom=1;labelBorderColor=#000000;strokeColor=#000000;labelBackgroundColor=none;fontFamily=Helvetica;rounded=0;" parent="151" vertex="1">
                    <mxGeometry y="300" width="250" height="30" as="geometry"/>
                </mxCell>
                <mxCell id="177" value="FK" style="shape=partialRectangle;overflow=hidden;connectable=0;fillColor=none;top=0;left=0;bottom=0;right=0;fontFamily=Helvetica;rounded=0;fontColor=#000000;" parent="176" vertex="1">
                    <mxGeometry width="32.75" height="30" as="geometry">
                        <mxRectangle width="32.75" height="30" as="alternateBounds"/>
                    </mxGeometry>
                </mxCell>
                <mxCell id="178" value="updated_by bigint " style="shape=partialRectangle;overflow=hidden;connectable=0;fillColor=none;top=0;left=1;bottom=0;right=0;align=left;spacingLeft=6;fontColor=#000000;strokeColor=#000000;fontSize=13;fontFamily=Helvetica;rounded=0;" parent="176" vertex="1">
                    <mxGeometry x="32.75" width="217.25" height="30" as="geometry">
                        <mxRectangle width="217.25" height="30" as="alternateBounds"/>
                    </mxGeometry>
                </mxCell>
                <mxCell id="257" value="posts" style="shape=table;startSize=30;container=1;collapsible=1;childLayout=tableLayout;fixedRows=1;rowLines=0;fontStyle=1;align=center;resizeLast=1;strokeColor=#36393d;fillColor=#cdeb8b;fontColor=#000000;fontSize=15;labelBackgroundColor=none;labelBorderColor=none;fontFamily=Helvetica;rounded=0;" parent="1" vertex="1">
                    <mxGeometry x="-2231" y="-2779" width="250" height="390" as="geometry">
                        <mxRectangle x="-2740" y="-3680" width="170" height="30" as="alternateBounds"/>
                    </mxGeometry>
                </mxCell>
                <mxCell id="258" value="" style="shape=partialRectangle;collapsible=0;dropTarget=0;pointerEvents=0;fillColor=#FFFFFF;points=[[0,0.5],[1,0.5]];portConstraint=eastwest;top=0;left=0;right=0;bottom=1;strokeColor=#666666;labelBackgroundColor=none;noLabel=1;fontColor=#333333;fontFamily=Helvetica;rounded=0;" parent="257" vertex="1">
                    <mxGeometry y="30" width="250" height="30" as="geometry"/>
                </mxCell>
                <mxCell id="259" value="PK" style="shape=partialRectangle;overflow=hidden;connectable=0;fillColor=none;top=1;left=1;bottom=1;right=1;fontStyle=1;fontColor=#000000;strokeColor=#000000;fontFamily=Helvetica;rounded=0;" parent="258" vertex="1">
                    <mxGeometry width="30" height="30" as="geometry">
                        <mxRectangle width="30" height="30" as="alternateBounds"/>
                    </mxGeometry>
                </mxCell>
                <mxCell id="260" value="id bigint NOT NULL " style="shape=partialRectangle;overflow=hidden;connectable=0;fillColor=none;top=1;left=1;bottom=1;right=1;align=left;spacingLeft=6;fontStyle=1;fontColor=#000000;strokeColor=#000000;noLabel=0;portConstraintRotation=0;fontFamily=Helvetica;rounded=0;" parent="258" vertex="1">
                    <mxGeometry x="30" width="220" height="30" as="geometry">
                        <mxRectangle width="220" height="30" as="alternateBounds"/>
                    </mxGeometry>
                </mxCell>
                <mxCell id="261" value="" style="shape=partialRectangle;collapsible=0;dropTarget=0;pointerEvents=0;fillColor=#FFFFFF;points=[[0,0.5],[1,0.5]];portConstraint=eastwest;top=1;left=1;right=1;bottom=1;labelBorderColor=#000000;strokeColor=#000000;labelBackgroundColor=none;fontFamily=Helvetica;rounded=0;" parent="257" vertex="1">
                    <mxGeometry y="60" width="250" height="30" as="geometry"/>
                </mxCell>
                <mxCell id="262" value="" style="shape=partialRectangle;overflow=hidden;connectable=0;fillColor=none;top=0;left=0;bottom=0;right=0;fontFamily=Helvetica;rounded=0;" parent="261" vertex="1">
                    <mxGeometry width="30" height="30" as="geometry">
                        <mxRectangle width="30" height="30" as="alternateBounds"/>
                    </mxGeometry>
                </mxCell>
                <mxCell id="263" value="title varchar(255) NOT NULL" style="shape=partialRectangle;overflow=hidden;connectable=0;fillColor=none;top=0;left=1;bottom=0;right=0;align=left;spacingLeft=6;fontColor=#000000;strokeColor=#000000;fontSize=13;fontFamily=Helvetica;rounded=0;" parent="261" vertex="1">
                    <mxGeometry x="30" width="220" height="30" as="geometry">
                        <mxRectangle width="220" height="30" as="alternateBounds"/>
                    </mxGeometry>
                </mxCell>
                <mxCell id="264" value="" style="shape=partialRectangle;collapsible=0;dropTarget=0;pointerEvents=0;fillColor=#FFFFFF;points=[[0,0.5],[1,0.5]];portConstraint=eastwest;top=1;left=1;right=1;bottom=1;labelBorderColor=#000000;strokeColor=#000000;labelBackgroundColor=none;fontFamily=Helvetica;rounded=0;" parent="257" vertex="1">
                    <mxGeometry y="90" width="250" height="30" as="geometry"/>
                </mxCell>
                <mxCell id="265" value="" style="shape=partialRectangle;overflow=hidden;connectable=0;fillColor=none;top=0;left=0;bottom=0;right=0;fontFamily=Helvetica;rounded=0;" parent="264" vertex="1">
                    <mxGeometry width="30" height="30" as="geometry">
                        <mxRectangle width="30" height="30" as="alternateBounds"/>
                    </mxGeometry>
                </mxCell>
                <mxCell id="266" value="slug varchar(255) NOT NULL" style="shape=partialRectangle;overflow=hidden;connectable=0;fillColor=none;top=0;left=1;bottom=0;right=0;align=left;spacingLeft=6;fontColor=#000000;strokeColor=#000000;fontSize=13;fontFamily=Helvetica;rounded=0;" parent="264" vertex="1">
                    <mxGeometry x="30" width="220" height="30" as="geometry">
                        <mxRectangle width="220" height="30" as="alternateBounds"/>
                    </mxGeometry>
                </mxCell>
                <mxCell id="267" value="" style="shape=partialRectangle;collapsible=0;dropTarget=0;pointerEvents=0;fillColor=#FFFFFF;points=[[0,0.5],[1,0.5]];portConstraint=eastwest;top=1;left=1;right=1;bottom=1;labelBorderColor=#000000;strokeColor=#000000;labelBackgroundColor=none;fontFamily=Helvetica;rounded=0;" parent="257" vertex="1">
                    <mxGeometry y="120" width="250" height="30" as="geometry"/>
                </mxCell>
                <mxCell id="268" value="" style="shape=partialRectangle;overflow=hidden;connectable=0;fillColor=none;top=0;left=0;bottom=0;right=0;fontFamily=Helvetica;rounded=0;" parent="267" vertex="1">
                    <mxGeometry width="30" height="30" as="geometry">
                        <mxRectangle width="30" height="30" as="alternateBounds"/>
                    </mxGeometry>
                </mxCell>
                <mxCell id="269" value="meta_tag_description varchar(255)" style="shape=partialRectangle;overflow=hidden;connectable=0;fillColor=none;top=0;left=1;bottom=0;right=0;align=left;spacingLeft=6;fontColor=#000000;strokeColor=#000000;fontSize=13;fontFamily=Helvetica;rounded=0;" parent="267" vertex="1">
                    <mxGeometry x="30" width="220" height="30" as="geometry">
                        <mxRectangle width="220" height="30" as="alternateBounds"/>
                    </mxGeometry>
                </mxCell>
                <mxCell id="382" value="" style="shape=partialRectangle;collapsible=0;dropTarget=0;pointerEvents=0;fillColor=#FFFFFF;points=[[0,0.5],[1,0.5]];portConstraint=eastwest;top=1;left=1;right=1;bottom=1;labelBorderColor=#000000;strokeColor=#000000;labelBackgroundColor=none;fontFamily=Helvetica;rounded=0;" parent="257" vertex="1">
                    <mxGeometry y="150" width="250" height="30" as="geometry"/>
                </mxCell>
                <mxCell id="383" value="" style="shape=partialRectangle;overflow=hidden;connectable=0;fillColor=none;top=0;left=0;bottom=0;right=0;fontFamily=Helvetica;rounded=0;" parent="382" vertex="1">
                    <mxGeometry width="30" height="30" as="geometry">
                        <mxRectangle width="30" height="30" as="alternateBounds"/>
                    </mxGeometry>
                </mxCell>
                <mxCell id="384" value="meta_tag_keywords varchar(255)" style="shape=partialRectangle;overflow=hidden;connectable=0;fillColor=none;top=0;left=1;bottom=0;right=0;align=left;spacingLeft=6;fontColor=#000000;strokeColor=#000000;fontSize=13;fontFamily=Helvetica;rounded=0;" parent="382" vertex="1">
                    <mxGeometry x="30" width="220" height="30" as="geometry">
                        <mxRectangle width="220" height="30" as="alternateBounds"/>
                    </mxGeometry>
                </mxCell>
                <mxCell id="299" value="" style="shape=partialRectangle;collapsible=0;dropTarget=0;pointerEvents=0;fillColor=#FFFFFF;points=[[0,0.5],[1,0.5]];portConstraint=eastwest;top=1;left=1;right=1;bottom=1;labelBorderColor=#000000;strokeColor=#000000;labelBackgroundColor=none;fontFamily=Helvetica;rounded=0;" parent="257" vertex="1">
                    <mxGeometry y="180" width="250" height="30" as="geometry"/>
                </mxCell>
                <mxCell id="300" value="" style="shape=partialRectangle;overflow=hidden;connectable=0;fillColor=none;top=0;left=0;bottom=0;right=0;fontFamily=Helvetica;rounded=0;" parent="299" vertex="1">
                    <mxGeometry width="30" height="30" as="geometry">
                        <mxRectangle width="30" height="30" as="alternateBounds"/>
                    </mxGeometry>
                </mxCell>
                <mxCell id="301" value="content longtext " style="shape=partialRectangle;overflow=hidden;connectable=0;fillColor=none;top=0;left=1;bottom=0;right=0;align=left;spacingLeft=6;fontColor=#000000;strokeColor=#000000;fontSize=13;fontFamily=Helvetica;rounded=0;" parent="299" vertex="1">
                    <mxGeometry x="30" width="220" height="30" as="geometry">
                        <mxRectangle width="220" height="30" as="alternateBounds"/>
                    </mxGeometry>
                </mxCell>
                <mxCell id="302" value="" style="shape=partialRectangle;collapsible=0;dropTarget=0;pointerEvents=0;fillColor=#FFFFFF;points=[[0,0.5],[1,0.5]];portConstraint=eastwest;top=1;left=1;right=1;bottom=1;labelBorderColor=#000000;strokeColor=#000000;labelBackgroundColor=none;fontFamily=Helvetica;rounded=0;" parent="257" vertex="1">
                    <mxGeometry y="210" width="250" height="30" as="geometry"/>
                </mxCell>
                <mxCell id="303" value="" style="shape=partialRectangle;overflow=hidden;connectable=0;fillColor=none;top=0;left=0;bottom=0;right=0;fontFamily=Helvetica;rounded=0;" parent="302" vertex="1">
                    <mxGeometry width="30" height="30" as="geometry">
                        <mxRectangle width="30" height="30" as="alternateBounds"/>
                    </mxGeometry>
                </mxCell>
                <mxCell id="304" value="slug varchar(255) NOT NULL" style="shape=partialRectangle;overflow=hidden;connectable=0;fillColor=none;top=0;left=1;bottom=0;right=0;align=left;spacingLeft=6;fontColor=#000000;strokeColor=#000000;fontSize=13;fontFamily=Helvetica;rounded=0;" parent="302" vertex="1">
                    <mxGeometry x="30" width="220" height="30" as="geometry">
                        <mxRectangle width="220" height="30" as="alternateBounds"/>
                    </mxGeometry>
                </mxCell>
                <mxCell id="305" value="" style="shape=partialRectangle;collapsible=0;dropTarget=0;pointerEvents=0;fillColor=#FFFFFF;points=[[0,0.5],[1,0.5]];portConstraint=eastwest;top=1;left=1;right=1;bottom=1;labelBorderColor=#000000;strokeColor=#000000;labelBackgroundColor=none;fontFamily=Helvetica;rounded=0;" parent="257" vertex="1">
                    <mxGeometry y="240" width="250" height="30" as="geometry"/>
                </mxCell>
                <mxCell id="306" value="" style="shape=partialRectangle;overflow=hidden;connectable=0;fillColor=none;top=0;left=0;bottom=0;right=0;fontFamily=Helvetica;rounded=0;" parent="305" vertex="1">
                    <mxGeometry width="30" height="30" as="geometry">
                        <mxRectangle width="30" height="30" as="alternateBounds"/>
                    </mxGeometry>
                </mxCell>
                <mxCell id="307" value="slug varchar(255) NOT NULL" style="shape=partialRectangle;overflow=hidden;connectable=0;fillColor=none;top=0;left=1;bottom=0;right=0;align=left;spacingLeft=6;fontColor=#000000;strokeColor=#000000;fontSize=13;fontFamily=Helvetica;rounded=0;" parent="305" vertex="1">
                    <mxGeometry x="30" width="220" height="30" as="geometry">
                        <mxRectangle width="220" height="30" as="alternateBounds"/>
                    </mxGeometry>
                </mxCell>
                <mxCell id="308" value="" style="shape=partialRectangle;collapsible=0;dropTarget=0;pointerEvents=0;fillColor=#FFFFFF;points=[[0,0.5],[1,0.5]];portConstraint=eastwest;top=1;left=1;right=1;bottom=1;labelBorderColor=#000000;strokeColor=#000000;labelBackgroundColor=none;fontFamily=Helvetica;rounded=0;" parent="257" vertex="1">
                    <mxGeometry y="270" width="250" height="30" as="geometry"/>
                </mxCell>
                <mxCell id="309" value="" style="shape=partialRectangle;overflow=hidden;connectable=0;fillColor=none;top=0;left=0;bottom=0;right=0;fontFamily=Helvetica;rounded=0;" parent="308" vertex="1">
                    <mxGeometry width="30" height="30" as="geometry">
                        <mxRectangle width="30" height="30" as="alternateBounds"/>
                    </mxGeometry>
                </mxCell>
                <mxCell id="310" value="slug varchar(255) NOT NULL" style="shape=partialRectangle;overflow=hidden;connectable=0;fillColor=none;top=0;left=1;bottom=0;right=0;align=left;spacingLeft=6;fontColor=#000000;strokeColor=#000000;fontSize=13;fontFamily=Helvetica;rounded=0;" parent="308" vertex="1">
                    <mxGeometry x="30" width="220" height="30" as="geometry">
                        <mxRectangle width="220" height="30" as="alternateBounds"/>
                    </mxGeometry>
                </mxCell>
                <mxCell id="311" value="" style="shape=partialRectangle;collapsible=0;dropTarget=0;pointerEvents=0;fillColor=#FFFFFF;points=[[0,0.5],[1,0.5]];portConstraint=eastwest;top=1;left=1;right=1;bottom=1;labelBorderColor=#000000;strokeColor=#000000;labelBackgroundColor=none;fontFamily=Helvetica;rounded=0;" parent="257" vertex="1">
                    <mxGeometry y="300" width="250" height="30" as="geometry"/>
                </mxCell>
                <mxCell id="312" value="" style="shape=partialRectangle;overflow=hidden;connectable=0;fillColor=none;top=0;left=0;bottom=0;right=0;fontFamily=Helvetica;rounded=0;" parent="311" vertex="1">
                    <mxGeometry width="30" height="30" as="geometry">
                        <mxRectangle width="30" height="30" as="alternateBounds"/>
                    </mxGeometry>
                </mxCell>
                <mxCell id="313" value="slug varchar(255) NOT NULL" style="shape=partialRectangle;overflow=hidden;connectable=0;fillColor=none;top=0;left=1;bottom=0;right=0;align=left;spacingLeft=6;fontColor=#000000;strokeColor=#000000;fontSize=13;fontFamily=Helvetica;rounded=0;" parent="311" vertex="1">
                    <mxGeometry x="30" width="220" height="30" as="geometry">
                        <mxRectangle width="220" height="30" as="alternateBounds"/>
                    </mxGeometry>
                </mxCell>
                <mxCell id="314" value="" style="shape=partialRectangle;collapsible=0;dropTarget=0;pointerEvents=0;fillColor=#FFFFFF;points=[[0,0.5],[1,0.5]];portConstraint=eastwest;top=1;left=1;right=1;bottom=1;labelBorderColor=#000000;strokeColor=#000000;labelBackgroundColor=none;fontFamily=Helvetica;rounded=0;" parent="257" vertex="1">
                    <mxGeometry y="330" width="250" height="30" as="geometry"/>
                </mxCell>
                <mxCell id="315" value="" style="shape=partialRectangle;overflow=hidden;connectable=0;fillColor=none;top=0;left=0;bottom=0;right=0;fontFamily=Helvetica;rounded=0;" parent="314" vertex="1">
                    <mxGeometry width="30" height="30" as="geometry">
                        <mxRectangle width="30" height="30" as="alternateBounds"/>
                    </mxGeometry>
                </mxCell>
                <mxCell id="316" value="slug varchar(255) NOT NULL" style="shape=partialRectangle;overflow=hidden;connectable=0;fillColor=none;top=0;left=1;bottom=0;right=0;align=left;spacingLeft=6;fontColor=#000000;strokeColor=#000000;fontSize=13;fontFamily=Helvetica;rounded=0;" parent="314" vertex="1">
                    <mxGeometry x="30" width="220" height="30" as="geometry">
                        <mxRectangle width="220" height="30" as="alternateBounds"/>
                    </mxGeometry>
                </mxCell>
                <mxCell id="379" value="" style="shape=partialRectangle;collapsible=0;dropTarget=0;pointerEvents=0;fillColor=#FFFFFF;points=[[0,0.5],[1,0.5]];portConstraint=eastwest;top=1;left=1;right=1;bottom=1;labelBorderColor=#000000;strokeColor=#000000;labelBackgroundColor=none;fontFamily=Helvetica;rounded=0;" parent="257" vertex="1">
                    <mxGeometry y="360" width="250" height="30" as="geometry"/>
                </mxCell>
                <mxCell id="380" value="" style="shape=partialRectangle;overflow=hidden;connectable=0;fillColor=none;top=0;left=0;bottom=0;right=0;fontFamily=Helvetica;rounded=0;" parent="379" vertex="1">
                    <mxGeometry width="30" height="30" as="geometry">
                        <mxRectangle width="30" height="30" as="alternateBounds"/>
                    </mxGeometry>
                </mxCell>
                <mxCell id="381" value="slug varchar(255) NOT NULL" style="shape=partialRectangle;overflow=hidden;connectable=0;fillColor=none;top=0;left=1;bottom=0;right=0;align=left;spacingLeft=6;fontColor=#000000;strokeColor=#000000;fontSize=13;fontFamily=Helvetica;rounded=0;" parent="379" vertex="1">
                    <mxGeometry x="30" width="220" height="30" as="geometry">
                        <mxRectangle width="220" height="30" as="alternateBounds"/>
                    </mxGeometry>
                </mxCell>
            </root>
        </mxGraphModel>
    </diagram>
</mxfile>